<?xml version="1.0" encoding="utf-8"?>
<!-- Generator: Adobe Illustrator 16.0.0, SVG Export Plug-In . SVG Version: 6.00 Build 0)  -->
<!DOCTYPE svg PUBLIC "-//W3C//DTD SVG 1.1//EN" "http://www.w3.org/Graphics/SVG/1.1/DTD/svg11.dtd">
<svg version="1.1" id="Layer_1" xmlns="http://www.w3.org/2000/svg" xmlns:xlink="http://www.w3.org/1999/xlink" x="0px" y="0px"
	 width="32px" height="32px" viewBox="0 0 32 32" enable-background="new 0 0 32 32" xml:space="preserve">
<g>
	<path fill="#FFFFFF" d="M20.452,23.637l-4.006,0.004l-2.668,2.674l-2.672,0.002l-0.001-2.674l-4.896,0.004L6.199,9.4l1.334-3.563
		l18.25-0.012l0.009,12.468L20.452,23.637z M24.012,17.402l-0.007-9.796L9.313,7.616l0.008,12.913l4.009-0.004l0.001,2.67L16,20.523
		l4.896-0.004L24.012,17.402z"/>
	<g id="Solo_Glitch_6_">
		<g>
			<path fill="#FFFFFF" d="M20.891,11.172l-1.781,0.001l0.004,5.343l1.781-0.002L20.891,11.172z M14.212,11.177l0.004,5.343
				l1.781-0.002l-0.003-5.343L14.212,11.177z"/>
		</g>
	</g>
</g>
<g>
	<path fill-rule="evenodd" clip-rule="evenodd" fill="#676767" d="M20.628,23.859l-4.056,0.003l-2.702,2.707l-2.706,0.001
		l-0.001-2.704l-4.956,0.003L6.199,9.447l1.35-3.607l18.476-0.012l0.009,12.622L20.628,23.859z M24.229,17.547l-0.007-9.916
		L9.351,7.641l0.008,13.071l4.059-0.002l0.001,2.701l2.7-2.703l4.957-0.003L24.229,17.547z"/>
	<g id="Solo_Glitch_8_">
		<g>
			<path fill="#676767" d="M21.07,11.241l-1.803,0.001l0.004,5.41l1.802-0.002L21.07,11.241z M14.311,11.246l0.004,5.409
				l1.803-0.002l-0.005-5.408L14.311,11.246z"/>
		</g>
	</g>
</g>
</svg>
