<?xml version="1.0" encoding="utf-8"?>
<!-- Generator: Adobe Illustrator 16.0.0, SVG Export Plug-In . SVG Version: 6.00 Build 0)  -->
<!DOCTYPE svg PUBLIC "-//W3C//DTD SVG 1.1//EN" "http://www.w3.org/Graphics/SVG/1.1/DTD/svg11.dtd">
<svg version="1.1" id="Layer_1" xmlns="http://www.w3.org/2000/svg" xmlns:xlink="http://www.w3.org/1999/xlink" x="0px" y="0px"
	 width="32px" height="32px" viewBox="0 0 32 32" enable-background="new 0 0 32 32" xml:space="preserve">
<path fill="#FFFFFF" d="M26.236,9.643c-0.754,0.334-1.562,0.56-2.412,0.661c0.865-0.52,1.533-1.343,1.847-2.324
	C24.857,8.461,23.96,8.811,23.004,9c-0.768-0.817-1.857-1.327-3.066-1.327c-2.319,0-4.2,1.88-4.2,4.2
	c0,0.329,0.037,0.65,0.108,0.958c-3.491-0.175-6.586-1.848-8.658-4.389c-0.362,0.621-0.569,1.342-0.569,2.112
	c0,1.458,0.742,2.743,1.868,3.496c-0.688-0.022-1.336-0.21-1.901-0.525c0,0.018,0,0.035,0,0.053c0,2.035,1.448,3.732,3.369,4.119
	c-0.353,0.096-0.723,0.146-1.107,0.146c-0.27,0-0.533-0.024-0.79-0.073c0.535,1.668,2.086,2.883,3.924,2.916
	c-1.438,1.127-3.249,1.799-5.217,1.799c-0.339,0-0.673-0.021-1.002-0.061c1.859,1.192,4.067,1.889,6.439,1.889
	c7.726,0,11.952-6.4,11.952-11.952c0-0.182-0.006-0.363-0.014-0.543C24.961,11.225,25.674,10.485,26.236,9.643z"/>
<path fill="#676767" d="M26.381,9.656c-0.759,0.336-1.574,0.563-2.43,0.666c0.873-0.524,1.543-1.352,1.859-2.34
	c-0.817,0.485-1.723,0.837-2.686,1.027c-0.772-0.822-1.871-1.336-3.087-1.336c-2.337,0-4.231,1.894-4.231,4.229
	c0,0.332,0.038,0.655,0.11,0.965c-3.516-0.177-6.633-1.861-8.719-4.42c-0.364,0.625-0.572,1.351-0.572,2.126
	c0,1.467,0.746,2.762,1.881,3.521c-0.693-0.022-1.345-0.212-1.916-0.529c0,0.018,0,0.036,0,0.053c0,2.05,1.458,3.76,3.392,4.148
	c-0.354,0.096-0.728,0.148-1.114,0.148c-0.272,0-0.537-0.026-0.795-0.076c0.538,1.68,2.101,2.902,3.952,2.938
	c-1.447,1.134-3.272,1.812-5.253,1.812c-0.342,0-0.678-0.021-1.009-0.06c1.871,1.2,4.095,1.9,6.484,1.9
	c7.78,0,12.035-6.446,12.035-12.035c0-0.184-0.005-0.366-0.014-0.548C25.096,11.25,25.813,10.505,26.381,9.656z"/>
</svg>
