<?xml version="1.0" encoding="utf-8"?>
<!-- Generator: Adobe Illustrator 16.0.0, SVG Export Plug-In . SVG Version: 6.00 Build 0)  -->
<!DOCTYPE svg PUBLIC "-//W3C//DTD SVG 1.1//EN" "http://www.w3.org/Graphics/SVG/1.1/DTD/svg11.dtd">
<svg version="1.1" id="Layer_1" xmlns="http://www.w3.org/2000/svg" xmlns:xlink="http://www.w3.org/1999/xlink" x="0px" y="0px"
	 width="32px" height="32px" viewBox="0 0 32 32" enable-background="new 0 0 32 32" xml:space="preserve">
<g>
	<g>
		<g>
			<path id="SVGID_1_" fill="#FFFFFF" d="M20.08,7.712v4.36c-0.229,0.323-0.446,0.483-0.652,0.483c-0.139,0-0.22-0.082-0.242-0.242
				c-0.013-0.033-0.013-0.159-0.013-0.402v-4.2h-1.03v4.511c0,0.402,0.034,0.675,0.092,0.848c0.104,0.289,0.332,0.424,0.666,0.424
				c0.377,0,0.77-0.229,1.181-0.701v0.622h1.034V7.712H20.08z M15.271,11.764v-2.4c0-0.528,0.159-0.791,0.494-0.791
				c0.333,0,0.493,0.263,0.493,0.791v2.4c0,0.528-0.159,0.792-0.493,0.792C15.43,12.556,15.271,12.292,15.271,11.764 M14.561,8.228
				c-0.22,0.289-0.324,0.735-0.324,1.344v1.999c0,0.606,0.104,1.056,0.324,1.342c0.286,0.389,0.688,0.583,1.204,0.583
				c0.518,0,0.918-0.194,1.206-0.583c0.217-0.286,0.32-0.736,0.32-1.342v-2c0-0.609-0.104-1.055-0.32-1.344
				c-0.287-0.39-0.688-0.584-1.206-0.584C15.25,7.644,14.847,7.838,14.561,8.228 M13.069,5.762l-0.782,3.006l-0.814-3.006h-1.206
				c0.241,0.709,0.494,1.422,0.735,2.132c0.368,1.068,0.597,1.873,0.701,2.422v3.1h1.146v-3.1l1.379-4.555h-1.159V5.762z"/>
		</g>
		<g>
			<defs>
				<path id="SVGID_2_" d="M20.08,7.712v4.36c-0.229,0.323-0.446,0.483-0.652,0.483c-0.139,0-0.22-0.082-0.242-0.242
					c-0.013-0.033-0.013-0.159-0.013-0.402v-4.2h-1.03v4.511c0,0.402,0.034,0.675,0.092,0.848c0.104,0.289,0.332,0.424,0.666,0.424
					c0.377,0,0.77-0.229,1.181-0.701v0.622h1.034V7.712H20.08z M15.271,11.764v-2.4c0-0.528,0.159-0.791,0.494-0.791
					c0.333,0,0.493,0.263,0.493,0.791v2.4c0,0.528-0.159,0.792-0.493,0.792C15.43,12.556,15.271,12.292,15.271,11.764 M14.561,8.228
					c-0.22,0.289-0.324,0.735-0.324,1.344v1.999c0,0.606,0.104,1.056,0.324,1.342c0.286,0.389,0.688,0.583,1.204,0.583
					c0.518,0,0.918-0.194,1.206-0.583c0.217-0.286,0.32-0.736,0.32-1.342v-2c0-0.609-0.104-1.055-0.32-1.344
					c-0.287-0.39-0.688-0.584-1.206-0.584C15.25,7.644,14.847,7.838,14.561,8.228 M13.069,5.762l-0.782,3.006l-0.814-3.006h-1.206
					c0.241,0.709,0.494,1.422,0.735,2.132c0.368,1.068,0.597,1.873,0.701,2.422v3.1h1.146v-3.1l1.379-4.555h-1.159V5.762z"/>
			</defs>
			<clipPath id="SVGID_4_">
				<use xlink:href="#SVGID_2_"  overflow="visible"/>
			</clipPath>
			<rect x="10.267" y="5.762" clip-path="url(#SVGID_4_)" fill="#FFFFFF" width="10.848" height="7.733"/>
		</g>
	</g>
	<g>
		<g>
			<path id="SVGID_3_" fill="#FFFFFF" d="M16.002,14.441c-2.115,0-4.239,0-6.338,0.235c-0.886,0.099-1.623,0.763-1.829,1.663
				c-0.295,1.282-0.298,2.683-0.298,4.002c0,1.318,0,2.72,0.295,4.001c0.207,0.899,0.943,1.562,1.829,1.662
				c2.098,0.234,4.223,0.236,6.338,0.234c2.114,0.002,4.239,0,6.338-0.234c0.886-0.1,1.622-0.763,1.829-1.662
				c0.296-1.281,0.297-2.683,0.297-4.001c0-1.319,0.002-2.72-0.293-4.002c-0.208-0.9-0.943-1.564-1.83-1.663
				c-1.979-0.222-3.979-0.235-5.974-0.235C16.245,14.441,16.124,14.441,16.002,14.441"/>
		</g>
		<g>
			<defs>
				<path id="SVGID_6_" d="M16.002,14.441c-2.115,0-4.239,0-6.338,0.235c-0.886,0.099-1.623,0.763-1.829,1.663
					c-0.295,1.282-0.298,2.683-0.298,4.002c0,1.318,0,2.72,0.295,4.001c0.207,0.899,0.943,1.562,1.829,1.662
					c2.098,0.234,4.223,0.236,6.338,0.234c2.114,0.002,4.239,0,6.338-0.234c0.886-0.1,1.622-0.763,1.829-1.662
					c0.296-1.281,0.297-2.683,0.297-4.001c0-1.319,0.002-2.72-0.293-4.002c-0.208-0.9-0.943-1.564-1.83-1.663
					c-1.979-0.222-3.979-0.235-5.974-0.235C16.245,14.441,16.124,14.441,16.002,14.441"/>
			</defs>
			<clipPath id="SVGID_7_">
				<use xlink:href="#SVGID_6_"  overflow="visible"/>
			</clipPath>
			<rect x="7.537" y="14.44" clip-path="url(#SVGID_7_)" fill="#FFFFFF" width="16.928" height="11.8"/>
		</g>
	</g>
	<g>
		<g>
			<path id="SVGID_5_" fill="#CD332D" d="M14.431,18.357v4.312c-0.226,0.32-0.441,0.479-0.646,0.479
				c-0.137,0-0.215-0.08-0.239-0.237c-0.01-0.033-0.01-0.159-0.01-0.397v-4.156h-1.023v4.465c0,0.398,0.035,0.668,0.09,0.839
				c0.103,0.286,0.33,0.42,0.66,0.42c0.376,0,0.762-0.228,1.168-0.694v0.616h1.024v-5.646H14.431L14.431,18.357z M21.156,19.992
				c0-0.521,0.171-0.784,0.512-0.784c0.34,0,0.512,0.263,0.512,0.784v0.521h-1.022L21.156,19.992L21.156,19.992z M20.453,18.867
				c-0.219,0.285-0.316,0.726-0.316,1.328v1.979c0,0.6,0.111,1.047,0.329,1.327c0.296,0.386,0.702,0.579,1.237,0.579
				s0.954-0.203,1.238-0.612c0.123-0.181,0.203-0.387,0.238-0.612c0.008-0.104,0.021-0.33,0.021-0.658v-0.149h-1.044
				c0,0.41-0.012,0.638-0.021,0.692c-0.059,0.273-0.205,0.41-0.457,0.41c-0.352,0-0.521-0.26-0.521-0.783v-1.001h2.045v-1.169
				c0-0.604-0.104-1.045-0.316-1.329c-0.285-0.388-0.693-0.58-1.205-0.58C21.156,18.287,20.748,18.479,20.453,18.867 M8.798,16.426
				v1.066h1.203v6.51h1.138v-6.51h1.226v-1.066H8.798z M17.363,22.898v-3.441c0.172-0.168,0.341-0.249,0.511-0.249
				c0.294,0,0.444,0.263,0.444,0.771v2.408c0,0.512-0.15,0.762-0.444,0.762C17.704,23.148,17.535,23.068,17.363,22.898
				 M16.34,16.426v7.576h1.023v-0.547c0.341,0.422,0.693,0.625,1.057,0.625c0.407,0,0.682-0.215,0.818-0.635
				c0.066-0.239,0.103-0.615,0.103-1.139v-2.246c0-0.535-0.034-0.908-0.103-1.136c-0.137-0.422-0.411-0.638-0.818-0.638
				c-0.376,0-0.727,0.207-1.057,0.613v-2.476L16.34,16.426L16.34,16.426z"/>
		</g>
		<g>
			<defs>
				<path id="SVGID_8_" d="M14.431,18.357v4.312c-0.226,0.32-0.441,0.479-0.646,0.479c-0.137,0-0.215-0.08-0.239-0.237
					c-0.01-0.033-0.01-0.159-0.01-0.397v-4.156h-1.023v4.465c0,0.398,0.035,0.668,0.09,0.839c0.103,0.286,0.33,0.42,0.66,0.42
					c0.376,0,0.762-0.228,1.168-0.694v0.616h1.024v-5.646H14.431L14.431,18.357z M21.156,19.992c0-0.521,0.171-0.784,0.512-0.784
					c0.34,0,0.512,0.263,0.512,0.784v0.521h-1.022L21.156,19.992L21.156,19.992z M20.453,18.867
					c-0.219,0.285-0.316,0.726-0.316,1.328v1.979c0,0.6,0.111,1.047,0.329,1.327c0.296,0.386,0.702,0.579,1.237,0.579
					s0.954-0.203,1.238-0.612c0.123-0.181,0.203-0.387,0.238-0.612c0.008-0.104,0.021-0.33,0.021-0.658v-0.149h-1.044
					c0,0.41-0.012,0.638-0.021,0.692c-0.059,0.273-0.205,0.41-0.457,0.41c-0.352,0-0.521-0.26-0.521-0.783v-1.001h2.045v-1.169
					c0-0.604-0.104-1.045-0.316-1.329c-0.285-0.388-0.693-0.58-1.205-0.58C21.156,18.287,20.748,18.479,20.453,18.867 M8.798,16.426
					v1.066h1.203v6.51h1.138v-6.51h1.226v-1.066H8.798z M17.363,22.898v-3.441c0.172-0.168,0.341-0.249,0.511-0.249
					c0.294,0,0.444,0.263,0.444,0.771v2.408c0,0.512-0.15,0.762-0.444,0.762C17.704,23.148,17.535,23.068,17.363,22.898
					 M16.34,16.426v7.576h1.023v-0.547c0.341,0.422,0.693,0.625,1.057,0.625c0.407,0,0.682-0.215,0.818-0.635
					c0.066-0.239,0.103-0.615,0.103-1.139v-2.246c0-0.535-0.034-0.908-0.103-1.136c-0.137-0.422-0.411-0.638-0.818-0.638
					c-0.376,0-0.727,0.207-1.057,0.613v-2.476L16.34,16.426L16.34,16.426z"/>
			</defs>
			<clipPath id="SVGID_9_">
				<use xlink:href="#SVGID_8_"  overflow="visible"/>
			</clipPath>
			<rect x="8.798" y="16.426" clip-path="url(#SVGID_9_)" fill="#CD332D" width="14.403" height="7.654"/>
		</g>
	</g>
</g>
<g>
	<g>
		<defs>
			<path id="SVGID_10_" d="M20.301,7.548v4.416c-0.232,0.328-0.452,0.49-0.66,0.49c-0.141,0-0.223-0.083-0.246-0.245
				c-0.013-0.034-0.013-0.162-0.013-0.407V7.548h-1.044v4.568c0,0.407,0.035,0.685,0.094,0.859c0.104,0.293,0.336,0.43,0.674,0.43
				c0.382,0,0.779-0.232,1.195-0.71v0.63h1.048V7.548H20.301z M15.431,11.652V9.221c0-0.534,0.161-0.8,0.5-0.8
				c0.337,0,0.5,0.266,0.5,0.8v2.431c0,0.535-0.162,0.802-0.5,0.802C15.592,12.454,15.431,12.187,15.431,11.652 M14.711,8.07
				c-0.222,0.292-0.328,0.744-0.328,1.361v2.024c0,0.613,0.105,1.068,0.328,1.359c0.29,0.394,0.698,0.591,1.219,0.591
				c0.525,0,0.932-0.198,1.221-0.591c0.22-0.291,0.325-0.746,0.325-1.359V9.431c0-0.617-0.105-1.069-0.325-1.361
				c-0.289-0.395-0.695-0.592-1.221-0.592C15.41,7.479,15.001,7.676,14.711,8.07 M13.201,5.573l-0.792,3.044l-0.825-3.044h-1.222
				c0.245,0.719,0.5,1.441,0.745,2.16c0.372,1.081,0.605,1.896,0.709,2.453v3.139h1.161v-3.139l1.397-4.613H13.201z"/>
		</defs>
		<use xlink:href="#SVGID_10_"  overflow="visible" fill="#676767"/>
		<clipPath id="SVGID_11_">
			<use xlink:href="#SVGID_10_"  overflow="visible"/>
		</clipPath>
		<rect x="10.363" y="5.573" clip-path="url(#SVGID_11_)" fill="#676767" width="10.986" height="7.833"/>
	</g>
	<g>
		<defs>
			<path id="SVGID_12_" d="M16.172,14.363c-2.142-0.001-4.293,0-6.419,0.238c-0.897,0.1-1.643,0.772-1.852,1.683
				c-0.299,1.299-0.302,2.715-0.302,4.053c0,1.336,0,2.754,0.298,4.051c0.209,0.912,0.955,1.585,1.852,1.686
				c2.125,0.236,4.277,0.238,6.418,0.236c2.142,0.002,4.293,0,6.419-0.236c0.897-0.101,1.643-0.773,1.852-1.686
				c0.3-1.297,0.302-2.715,0.302-4.051c0-1.338,0.001-2.754-0.298-4.053c-0.21-0.911-0.955-1.583-1.852-1.683
				c-2.005-0.225-4.031-0.238-6.052-0.238C16.417,14.363,16.294,14.363,16.172,14.363"/>
		</defs>
		<use xlink:href="#SVGID_12_"  overflow="visible" fill="#676767"/>
		<clipPath id="SVGID_13_">
			<use xlink:href="#SVGID_12_"  overflow="visible"/>
		</clipPath>
		<rect x="7.599" y="14.362" clip-path="url(#SVGID_13_)" fill="#676767" width="17.143" height="11.95"/>
	</g>
	<g>
		<defs>
			<path id="SVGID_14_" d="M14.581,18.328v4.369c-0.229,0.324-0.447,0.484-0.655,0.484c-0.139,0-0.217-0.081-0.242-0.242
				c-0.01-0.033-0.01-0.16-0.01-0.403v-4.208h-1.036v4.521c0,0.403,0.035,0.677,0.092,0.85c0.104,0.29,0.333,0.426,0.667,0.426
				c0.381,0,0.772-0.23,1.184-0.702v0.623h1.037v-5.717H14.581z M21.392,19.984c0-0.528,0.173-0.794,0.519-0.794
				c0.343,0,0.517,0.266,0.517,0.794v0.528h-1.035V19.984z M20.68,18.845c-0.221,0.289-0.32,0.734-0.32,1.347v2.002
				c0,0.607,0.111,1.059,0.332,1.345c0.301,0.39,0.711,0.586,1.254,0.586c0.541,0,0.966-0.205,1.253-0.62
				c0.125-0.184,0.207-0.392,0.242-0.621c0.009-0.104,0.021-0.333,0.021-0.667v-0.151h-1.057c0,0.416-0.014,0.646-0.022,0.701
				c-0.059,0.277-0.208,0.416-0.463,0.416c-0.355,0-0.528-0.264-0.528-0.794v-1.013h2.07v-1.184c0-0.612-0.104-1.058-0.32-1.347
				c-0.29-0.392-0.702-0.587-1.222-0.587C21.392,18.258,20.978,18.453,20.68,18.845 M8.876,16.372v1.08h1.218v6.593h1.152v-6.593
				h1.241v-1.08H8.876z M17.551,22.927v-3.484c0.172-0.171,0.345-0.252,0.516-0.252c0.299,0,0.45,0.266,0.45,0.781v2.439
				c0,0.516-0.151,0.771-0.45,0.771C17.896,23.182,17.723,23.101,17.551,22.927 M16.514,16.372v7.673h1.037v-0.554
				c0.345,0.428,0.701,0.633,1.069,0.633c0.413,0,0.69-0.218,0.828-0.643c0.069-0.242,0.104-0.624,0.104-1.152v-2.276
				c0-0.541-0.035-0.919-0.104-1.149c-0.138-0.428-0.415-0.646-0.828-0.646c-0.381,0-0.736,0.208-1.069,0.621v-2.507H16.514z"/>
		</defs>
		<use xlink:href="#SVGID_14_"  overflow="visible" fill="#FFFFFF"/>
		<clipPath id="SVGID_15_">
			<use xlink:href="#SVGID_14_"  overflow="visible"/>
		</clipPath>
		<rect x="8.876" y="16.372" clip-path="url(#SVGID_15_)" fill="#FFFFFF" width="14.585" height="7.752"/>
	</g>
</g>
</svg>
