<?xml version="1.0" encoding="utf-8"?>
<!-- Generator: Adobe Illustrator 16.0.0, SVG Export Plug-In . SVG Version: 6.00 Build 0)  -->
<!DOCTYPE svg PUBLIC "-//W3C//DTD SVG 1.1//EN" "http://www.w3.org/Graphics/SVG/1.1/DTD/svg11.dtd">
<svg version="1.1" id="Layer_1" xmlns="http://www.w3.org/2000/svg" xmlns:xlink="http://www.w3.org/1999/xlink" x="0px" y="0px"
	 width="32px" height="32px" viewBox="0 0 32 32" enable-background="new 0 0 32 32" xml:space="preserve">
<path fill="#FFFFFF" d="M11.07,12.541h2.113v-0.958v-0.939v-0.157c0-0.904,0.023-2.3,0.681-3.165
	c0.692-0.915,1.644-1.537,3.279-1.537c2.664,0,3.787,0.379,3.787,0.379l-0.527,3.129c0,0-0.881-0.254-1.702-0.254
	s-1.558,0.293-1.558,1.115v0.333v1.096v0.958h3.369l-0.234,3.056h-3.135v10.617h-3.958V15.597H11.07V12.541L11.07,12.541z"/>
<path fill="#676767" d="M11.07,12.52h2.105v-0.956v-0.936v-0.156c0-0.901,0.024-2.293,0.679-3.155
	c0.69-0.912,1.639-1.532,3.269-1.532c2.655,0,3.773,0.378,3.773,0.378l-0.524,3.12c0,0-0.878-0.253-1.697-0.253
	s-1.552,0.292-1.552,1.111v0.332v1.092v0.956h3.357l-0.234,3.046h-3.123V26.15h-3.948V15.566H11.07V12.52L11.07,12.52z"/>
</svg>
