<?xml version="1.0" standalone="no"?>
<!DOCTYPE svg PUBLIC "-//W3C//DTD SVG 20010904//EN"
 "http://www.w3.org/TR/2001/REC-SVG-20010904/DTD/svg10.dtd">
<svg version="1.0" xmlns="http://www.w3.org/2000/svg"
 width="230.000000pt" height="43.000000pt" viewBox="0 0 230.000000 43.000000"
 preserveAspectRatio="xMidYMid meet">
<metadata>
Created by potrace 1.13, written by Peter Selinger 2001-2015
</metadata>
<g transform="translate(0.000000,43.000000) scale(0.100000,-0.100000)"
fill="#000000" stroke="none">
<path d="M125 305 c-23 -22 -25 -32 -25 -120 l0 -95 95 0 c88 0 98 2 120 25
23 22 25 32 25 120 l0 95 -95 0 c-88 0 -98 -2 -120 -25z"/>
<path d="M380 209 c0 -109 2 -120 18 -117 14 3 18 16 20 72 l3 69 25 -36 c14
-21 29 -37 34 -37 5 0 20 16 34 37 l25 36 3 -69 c2 -56 6 -69 21 -72 15 -3 17
8 17 117 0 141 -9 151 -60 71 -18 -27 -36 -50 -40 -50 -4 0 -22 23 -40 50 -51
80 -60 70 -60 -71z"/>
<path d="M668 315 c-54 -30 -73 -107 -43 -165 35 -68 135 -79 187 -21 49 55
49 107 0 162 -34 38 -100 49 -144 24z m108 -48 c37 -33 37 -81 0 -114 -32 -27
-47 -28 -86 -8 -52 27 -53 102 -2 129 38 21 57 20 88 -7z"/>
<path d="M1041 223 c-24 -59 -45 -114 -48 -121 -3 -7 3 -12 17 -12 15 0 25 9
33 30 10 27 16 30 54 30 36 0 44 -4 55 -27 14 -29 48 -44 48 -21 -2 31 -87
223 -101 226 -11 2 -28 -28 -58 -105z"/>
<path d="M1225 318 c-3 -8 -4 -61 -3 -119 3 -88 6 -104 20 -107 15 -3 18 7 20
70 l3 73 53 -73 c29 -40 59 -71 65 -69 8 2 12 38 12 118 0 100 -2 114 -17 117
-16 3 -18 -5 -18 -67 0 -39 -3 -71 -7 -71 -5 1 -28 31 -53 67 -47 69 -66 85
-75 61z"/>
<path d="M1495 321 c-45 -20 -70 -60 -70 -112 0 -42 5 -53 33 -81 28 -28 39
-33 82 -33 42 0 54 5 80 30 18 19 33 46 37 68 l6 37 -67 0 c-59 0 -66 -2 -66
-20 0 -17 7 -20 40 -20 43 0 49 -9 25 -34 -59 -59 -157 6 -125 83 17 43 62 59
106 38 19 -10 45 -17 57 -17 20 0 20 2 -9 31 -33 33 -92 46 -129 30z"/>
<path d="M1840 300 l0 -30 75 0 75 0 0 -30 0 -30 -75 0 -75 0 0 -30 0 -30 75
0 75 0 0 -30 c0 -27 3 -30 30 -30 27 0 30 3 30 30 l0 30 75 0 75 0 0 30 0 30
-75 0 -75 0 0 30 0 30 75 0 75 0 0 30 0 30 -180 0 -180 0 0 -30z"/>
</g>
</svg>
